solid CATIA STL
  facet normal -7.860161e-002  0.000000e+000  9.969061e-001
    outer loop
      vertex -5.507802e+001 -1.116754e+002  1.293246e+002
      vertex -5.507802e+001 -1.016754e+002  1.293246e+002
      vertex -5.523478e+001 -1.115187e+002  1.293122e+002
    endloop
  endfacet
  facet normal -7.860160e-002  0.000000e+000  9.969061e-001
    outer loop
      vertex -5.523478e+001 -1.115187e+002  1.293122e+002
      vertex -5.507802e+001 -1.016754e+002  1.293246e+002
      vertex -5.523478e+001 -1.018322e+002  1.293122e+002
    endloop
  endfacet
  facet normal -2.639849e-001  0.000000e+000  9.645268e-001
    outer loop
      vertex -5.523478e+001 -1.115187e+002  1.293122e+002
      vertex -5.523478e+001 -1.018322e+002  1.293122e+002
      vertex -5.544613e+001 -1.113073e+002  1.292544e+002
    endloop
  endfacet
  facet normal -2.639849e-001  0.000000e+000  9.645268e-001
    outer loop
      vertex -5.544613e+001 -1.113073e+002  1.292544e+002
      vertex -5.523478e+001 -1.018322e+002  1.293122e+002
      vertex -5.544613e+001 -1.020435e+002  1.292544e+002
    endloop
  endfacet
  facet normal -4.725336e-001  0.000000e+000  8.813127e-001
    outer loop
      vertex -5.544613e+001 -1.113073e+002  1.292544e+002
      vertex -5.544613e+001 -1.020435e+002  1.292544e+002
      vertex -5.564873e+001 -1.111047e+002  1.291458e+002
    endloop
  endfacet
  facet normal -4.725336e-001  0.000000e+000  8.813126e-001
    outer loop
      vertex -5.564873e+001 -1.111047e+002  1.291458e+002
      vertex -5.544613e+001 -1.020435e+002  1.292544e+002
      vertex -5.564873e+001 -1.022461e+002  1.291458e+002
    endloop
  endfacet
  facet normal -6.673290e-001  0.000000e+000  7.447630e-001
    outer loop
      vertex -5.564873e+001 -1.111047e+002  1.291458e+002
      vertex -5.564873e+001 -1.022461e+002  1.291458e+002
      vertex -5.583181e+001 -1.109216e+002  1.289817e+002
    endloop
  endfacet
  facet normal -6.673290e-001  0.000000e+000  7.447630e-001
    outer loop
      vertex -5.583181e+001 -1.109216e+002  1.289817e+002
      vertex -5.564873e+001 -1.022461e+002  1.291458e+002
      vertex -5.583181e+001 -1.024292e+002  1.289817e+002
    endloop
  endfacet
  facet normal -7.950640e-001  0.000000e+000  6.065255e-001
    outer loop
      vertex -5.583181e+001 -1.109216e+002  1.289817e+002
      vertex -5.583181e+001 -1.024292e+002  1.289817e+002
      vertex -5.591099e+001 -1.108424e+002  1.288779e+002
    endloop
  endfacet
  facet normal -7.950640e-001  0.000000e+000  6.065256e-001
    outer loop
      vertex -5.591099e+001 -1.108424e+002  1.288779e+002
      vertex -5.583181e+001 -1.024292e+002  1.289817e+002
      vertex -5.591099e+001 -1.025084e+002  1.288779e+002
    endloop
  endfacet
  facet normal -8.687440e-001  0.000000e+000  4.952614e-001
    outer loop
      vertex -5.591099e+001 -1.108424e+002  1.288779e+002
      vertex -5.591099e+001 -1.025084e+002  1.288779e+002
      vertex -5.597848e+001 -1.107749e+002  1.287595e+002
    endloop
  endfacet
  facet normal -8.687440e-001  0.000000e+000  4.952614e-001
    outer loop
      vertex -5.597848e+001 -1.107749e+002  1.287595e+002
      vertex -5.591099e+001 -1.025084e+002  1.288779e+002
      vertex -5.597848e+001 -1.025759e+002  1.287595e+002
    endloop
  endfacet
  facet normal -9.427451e-001  0.000000e+000  3.335138e-001
    outer loop
      vertex -5.597848e+001 -1.107749e+002  1.287595e+002
      vertex -5.597848e+001 -1.025759e+002  1.287595e+002
      vertex -5.605167e+001 -1.107018e+002  1.285526e+002
    endloop
  endfacet
  facet normal -9.427453e-001  0.000000e+000  3.335138e-001
    outer loop
      vertex -5.605167e+001 -1.107018e+002  1.285526e+002
      vertex -5.597848e+001 -1.025759e+002  1.287595e+002
      vertex -5.605167e+001 -1.026491e+002  1.285526e+002
    endloop
  endfacet
  facet normal -9.933903e-001  0.000000e+000  1.147856e-001
    outer loop
      vertex -5.605167e+001 -1.107018e+002  1.285526e+002
      vertex -5.605167e+001 -1.026491e+002  1.285526e+002
      vertex -5.607802e+001 -1.106754e+002  1.283246e+002
    endloop
  endfacet
  facet normal -9.933903e-001  0.000000e+000  1.147856e-001
    outer loop
      vertex -5.607802e+001 -1.106754e+002  1.283246e+002
      vertex -5.605167e+001 -1.026491e+002  1.285526e+002
      vertex -5.607802e+001 -1.026754e+002  1.283246e+002
    endloop
  endfacet
  facet normal  -0.000000e+000  9.933903e-001  1.147856e-001
    outer loop
      vertex -5.607802e+001 -1.106754e+002  1.283246e+002
      vertex -7.207803e+001 -1.106754e+002  1.283246e+002
      vertex -5.605167e+001 -1.107018e+002  1.285526e+002
    endloop
  endfacet
  facet normal  0.000000e+000  9.933903e-001  1.147856e-001
    outer loop
      vertex -5.605167e+001 -1.107018e+002  1.285526e+002
      vertex -7.207803e+001 -1.106754e+002  1.283246e+002
      vertex -7.210438e+001 -1.107018e+002  1.285526e+002
    endloop
  endfacet
  facet normal  -0.000000e+000  9.427508e-001  3.334984e-001
    outer loop
      vertex -5.605167e+001 -1.107018e+002  1.285526e+002
      vertex -7.210438e+001 -1.107018e+002  1.285526e+002
      vertex -5.597848e+001 -1.107749e+002  1.287595e+002
    endloop
  endfacet
  facet normal  0.000000e+000  9.427508e-001  3.334983e-001
    outer loop
      vertex -5.597848e+001 -1.107749e+002  1.287595e+002
      vertex -7.210438e+001 -1.107018e+002  1.285526e+002
      vertex -7.217757e+001 -1.107749e+002  1.287595e+002
    endloop
  endfacet
  facet normal  -0.000000e+000  8.687320e-001  4.952825e-001
    outer loop
      vertex -5.597848e+001 -1.107749e+002  1.287595e+002
      vertex -7.217757e+001 -1.107749e+002  1.287595e+002
      vertex -5.591099e+001 -1.108424e+002  1.288779e+002
    endloop
  endfacet
  facet normal  0.000000e+000  8.687319e-001  4.952825e-001
    outer loop
      vertex -5.591099e+001 -1.108424e+002  1.288779e+002
      vertex -7.217757e+001 -1.107749e+002  1.287595e+002
      vertex -7.224506e+001 -1.108424e+002  1.288779e+002
    endloop
  endfacet
  facet normal  -0.000000e+000  7.950640e-001  6.065256e-001
    outer loop
      vertex -5.591099e+001 -1.108424e+002  1.288779e+002
      vertex -7.224506e+001 -1.108424e+002  1.288779e+002
      vertex -5.583181e+001 -1.109216e+002  1.289817e+002
    endloop
  endfacet
  facet normal  0.000000e+000  7.950640e-001  6.065256e-001
    outer loop
      vertex -5.583181e+001 -1.109216e+002  1.289817e+002
      vertex -7.224506e+001 -1.108424e+002  1.288779e+002
      vertex -7.232423e+001 -1.109216e+002  1.289817e+002
    endloop
  endfacet
  facet normal  -0.000000e+000  6.673291e-001  7.447630e-001
    outer loop
      vertex -5.583181e+001 -1.109216e+002  1.289817e+002
      vertex -7.232423e+001 -1.109216e+002  1.289817e+002
      vertex -5.564873e+001 -1.111047e+002  1.291458e+002
    endloop
  endfacet
  facet normal  0.000000e+000  6.673291e-001  7.447631e-001
    outer loop
      vertex -5.564873e+001 -1.111047e+002  1.291458e+002
      vertex -7.232423e+001 -1.109216e+002  1.289817e+002
      vertex -7.250732e+001 -1.111047e+002  1.291458e+002
    endloop
  endfacet
  facet normal  -0.000000e+000  4.725336e-001  8.813127e-001
    outer loop
      vertex -5.564873e+001 -1.111047e+002  1.291458e+002
      vertex -7.250732e+001 -1.111047e+002  1.291458e+002
      vertex -5.544613e+001 -1.113073e+002  1.292544e+002
    endloop
  endfacet
  facet normal  0.000000e+000  4.725336e-001  8.813126e-001
    outer loop
      vertex -5.544613e+001 -1.113073e+002  1.292544e+002
      vertex -7.250732e+001 -1.111047e+002  1.291458e+002
      vertex -7.270991e+001 -1.113073e+002  1.292544e+002
    endloop
  endfacet
  facet normal  -0.000000e+000  2.639805e-001  9.645280e-001
    outer loop
      vertex -5.544613e+001 -1.113073e+002  1.292544e+002
      vertex -7.270991e+001 -1.113073e+002  1.292544e+002
      vertex -5.523478e+001 -1.115187e+002  1.293122e+002
    endloop
  endfacet
  facet normal  0.000000e+000  2.639805e-001  9.645280e-001
    outer loop
      vertex -5.523478e+001 -1.115187e+002  1.293122e+002
      vertex -7.270991e+001 -1.113073e+002  1.292544e+002
      vertex -7.292126e+001 -1.115187e+002  1.293122e+002
    endloop
  endfacet
  facet normal  -0.000000e+000  7.860351e-002  9.969059e-001
    outer loop
      vertex -5.523478e+001 -1.115187e+002  1.293122e+002
      vertex -7.292126e+001 -1.115187e+002  1.293122e+002
      vertex -5.507802e+001 -1.116754e+002  1.293246e+002
    endloop
  endfacet
  facet normal  0.000000e+000  7.860351e-002  9.969060e-001
    outer loop
      vertex -5.507802e+001 -1.116754e+002  1.293246e+002
      vertex -7.292126e+001 -1.115187e+002  1.293122e+002
      vertex -7.307803e+001 -1.116754e+002  1.293246e+002
    endloop
  endfacet
  facet normal  7.859971e-002  -0.000000e+000  9.969063e-001
    outer loop
      vertex -7.307803e+001 -1.016754e+002  1.293246e+002
      vertex -7.307803e+001 -1.116754e+002  1.293246e+002
      vertex -7.292126e+001 -1.018322e+002  1.293122e+002
    endloop
  endfacet
  facet normal  7.859970e-002  0.000000e+000  9.969062e-001
    outer loop
      vertex -7.292126e+001 -1.018322e+002  1.293122e+002
      vertex -7.307803e+001 -1.116754e+002  1.293246e+002
      vertex -7.292126e+001 -1.115187e+002  1.293122e+002
    endloop
  endfacet
  facet normal  2.639894e-001  -0.000000e+000  9.645256e-001
    outer loop
      vertex -7.292126e+001 -1.018322e+002  1.293122e+002
      vertex -7.292126e+001 -1.115187e+002  1.293122e+002
      vertex -7.270992e+001 -1.020435e+002  1.292544e+002
    endloop
  endfacet
  facet normal  2.639803e-001  2.174069e-007  9.645281e-001
    outer loop
      vertex -7.270992e+001 -1.020435e+002  1.292544e+002
      vertex -7.292126e+001 -1.115187e+002  1.293122e+002
      vertex -7.270991e+001 -1.113073e+002  1.292544e+002
    endloop
  endfacet
  facet normal  4.725339e-001  3.891660e-007  8.813125e-001
    outer loop
      vertex -7.270992e+001 -1.020435e+002  1.292544e+002
      vertex -7.270991e+001 -1.113073e+002  1.292544e+002
      vertex -7.250732e+001 -1.022461e+002  1.291458e+002
    endloop
  endfacet
  facet normal  4.725474e-001  0.000000e+000  8.813053e-001
    outer loop
      vertex -7.250732e+001 -1.022461e+002  1.291458e+002
      vertex -7.270991e+001 -1.113073e+002  1.292544e+002
      vertex -7.250732e+001 -1.111047e+002  1.291458e+002
    endloop
  endfacet
  facet normal  6.673137e-001  -0.000000e+000  7.447769e-001
    outer loop
      vertex -7.250732e+001 -1.022461e+002  1.291458e+002
      vertex -7.250732e+001 -1.111047e+002  1.291458e+002
      vertex -7.232423e+001 -1.024292e+002  1.289817e+002
    endloop
  endfacet
  facet normal  6.673294e-001 -5.995136e-007  7.447628e-001
    outer loop
      vertex -7.232423e+001 -1.024292e+002  1.289817e+002
      vertex -7.250732e+001 -1.111047e+002  1.291458e+002
      vertex -7.232423e+001 -1.109216e+002  1.289817e+002
    endloop
  endfacet
  facet normal  7.950919e-001 -7.142926e-007  6.064890e-001
    outer loop
      vertex -7.232423e+001 -1.024292e+002  1.289817e+002
      vertex -7.232423e+001 -1.109216e+002  1.289817e+002
      vertex -7.224506e+001 -1.025084e+002  1.288779e+002
    endloop
  endfacet
  facet normal  7.950640e-001  0.000000e+000  6.065256e-001
    outer loop
      vertex -7.224506e+001 -1.025084e+002  1.288779e+002
      vertex -7.232423e+001 -1.109216e+002  1.289817e+002
      vertex -7.224506e+001 -1.108424e+002  1.288779e+002
    endloop
  endfacet
  facet normal  8.687320e-001  -0.000000e+000  4.952825e-001
    outer loop
      vertex -7.224506e+001 -1.025084e+002  1.288779e+002
      vertex -7.224506e+001 -1.108424e+002  1.288779e+002
      vertex -7.217757e+001 -1.025759e+002  1.287595e+002
    endloop
  endfacet
  facet normal  8.687320e-001  0.000000e+000  4.952825e-001
    outer loop
      vertex -7.217757e+001 -1.025759e+002  1.287595e+002
      vertex -7.224506e+001 -1.108424e+002  1.288779e+002
      vertex -7.217757e+001 -1.107749e+002  1.287595e+002
    endloop
  endfacet
  facet normal  9.427508e-001  -0.000000e+000  3.334983e-001
    outer loop
      vertex -7.217757e+001 -1.025759e+002  1.287595e+002
      vertex -7.217757e+001 -1.107749e+002  1.287595e+002
      vertex -7.210438e+001 -1.026491e+002  1.285526e+002
    endloop
  endfacet
  facet normal  9.427507e-001  0.000000e+000  3.334983e-001
    outer loop
      vertex -7.210438e+001 -1.026491e+002  1.285526e+002
      vertex -7.217757e+001 -1.107749e+002  1.287595e+002
      vertex -7.210438e+001 -1.107018e+002  1.285526e+002
    endloop
  endfacet
  facet normal  9.933903e-001  -0.000000e+000  1.147856e-001
    outer loop
      vertex -7.210438e+001 -1.026491e+002  1.285526e+002
      vertex -7.210438e+001 -1.107018e+002  1.285526e+002
      vertex -7.207803e+001 -1.026754e+002  1.283246e+002
    endloop
  endfacet
  facet normal  9.933903e-001  0.000000e+000  1.147856e-001
    outer loop
      vertex -7.207803e+001 -1.026754e+002  1.283246e+002
      vertex -7.210438e+001 -1.107018e+002  1.285526e+002
      vertex -7.207803e+001 -1.106754e+002  1.283246e+002
    endloop
  endfacet
  facet normal  0.000000e+000 -9.933903e-001  1.147856e-001
    outer loop
      vertex -7.207803e+001 -1.026754e+002  1.283246e+002
      vertex -5.607802e+001 -1.026754e+002  1.283246e+002
      vertex -7.210438e+001 -1.026491e+002  1.285526e+002
    endloop
  endfacet
  facet normal  0.000000e+000 -9.933903e-001  1.147856e-001
    outer loop
      vertex -7.210438e+001 -1.026491e+002  1.285526e+002
      vertex -5.607802e+001 -1.026754e+002  1.283246e+002
      vertex -5.605167e+001 -1.026491e+002  1.285526e+002
    endloop
  endfacet
  facet normal  0.000000e+000 -9.427508e-001  3.334984e-001
    outer loop
      vertex -7.210438e+001 -1.026491e+002  1.285526e+002
      vertex -5.605167e+001 -1.026491e+002  1.285526e+002
      vertex -7.217757e+001 -1.025759e+002  1.287595e+002
    endloop
  endfacet
  facet normal  0.000000e+000 -9.427508e-001  3.334983e-001
    outer loop
      vertex -7.217757e+001 -1.025759e+002  1.287595e+002
      vertex -5.605167e+001 -1.026491e+002  1.285526e+002
      vertex -5.597848e+001 -1.025759e+002  1.287595e+002
    endloop
  endfacet
  facet normal  0.000000e+000 -8.687320e-001  4.952825e-001
    outer loop
      vertex -7.217757e+001 -1.025759e+002  1.287595e+002
      vertex -5.597848e+001 -1.025759e+002  1.287595e+002
      vertex -7.224506e+001 -1.025084e+002  1.288779e+002
    endloop
  endfacet
  facet normal  0.000000e+000 -8.687319e-001  4.952825e-001
    outer loop
      vertex -7.224506e+001 -1.025084e+002  1.288779e+002
      vertex -5.597848e+001 -1.025759e+002  1.287595e+002
      vertex -5.591099e+001 -1.025084e+002  1.288779e+002
    endloop
  endfacet
  facet normal  0.000000e+000 -7.950640e-001  6.065256e-001
    outer loop
      vertex -7.224506e+001 -1.025084e+002  1.288779e+002
      vertex -5.591099e+001 -1.025084e+002  1.288779e+002
      vertex -7.232423e+001 -1.024292e+002  1.289817e+002
    endloop
  endfacet
  facet normal  0.000000e+000 -7.950640e-001  6.065255e-001
    outer loop
      vertex -7.232423e+001 -1.024292e+002  1.289817e+002
      vertex -5.591099e+001 -1.025084e+002  1.288779e+002
      vertex -5.583181e+001 -1.024292e+002  1.289817e+002
    endloop
  endfacet
  facet normal  0.000000e+000 -6.673290e-001  7.447630e-001
    outer loop
      vertex -7.232423e+001 -1.024292e+002  1.289817e+002
      vertex -5.583181e+001 -1.024292e+002  1.289817e+002
      vertex -7.250732e+001 -1.022461e+002  1.291458e+002
    endloop
  endfacet
  facet normal  0.000000e+000 -6.673291e-001  7.447631e-001
    outer loop
      vertex -7.250732e+001 -1.022461e+002  1.291458e+002
      vertex -5.583181e+001 -1.024292e+002  1.289817e+002
      vertex -5.564873e+001 -1.022461e+002  1.291458e+002
    endloop
  endfacet
  facet normal  0.000000e+000 -4.725336e-001  8.813127e-001
    outer loop
      vertex -7.250732e+001 -1.022461e+002  1.291458e+002
      vertex -5.564873e+001 -1.022461e+002  1.291458e+002
      vertex -7.270992e+001 -1.020435e+002  1.292544e+002
    endloop
  endfacet
  facet normal  0.000000e+000 -4.725336e-001  8.813127e-001
    outer loop
      vertex -7.270992e+001 -1.020435e+002  1.292544e+002
      vertex -5.564873e+001 -1.022461e+002  1.291458e+002
      vertex -5.544613e+001 -1.020435e+002  1.292544e+002
    endloop
  endfacet
  facet normal  0.000000e+000 -2.639805e-001  9.645280e-001
    outer loop
      vertex -7.270992e+001 -1.020435e+002  1.292544e+002
      vertex -5.544613e+001 -1.020435e+002  1.292544e+002
      vertex -7.292126e+001 -1.018322e+002  1.293122e+002
    endloop
  endfacet
  facet normal  0.000000e+000 -2.639805e-001  9.645280e-001
    outer loop
      vertex -7.292126e+001 -1.018322e+002  1.293122e+002
      vertex -5.544613e+001 -1.020435e+002  1.292544e+002
      vertex -5.523478e+001 -1.018322e+002  1.293122e+002
    endloop
  endfacet
  facet normal  0.000000e+000 -7.860351e-002  9.969059e-001
    outer loop
      vertex -7.292126e+001 -1.018322e+002  1.293122e+002
      vertex -5.523478e+001 -1.018322e+002  1.293122e+002
      vertex -7.307803e+001 -1.016754e+002  1.293246e+002
    endloop
  endfacet
  facet normal  0.000000e+000 -7.860351e-002  9.969060e-001
    outer loop
      vertex -7.307803e+001 -1.016754e+002  1.293246e+002
      vertex -5.523478e+001 -1.018322e+002  1.293122e+002
      vertex -5.507802e+001 -1.016754e+002  1.293246e+002
    endloop
  endfacet
  facet normal  0.000000e+000 -1.000000e+000  0.000000e+000
    outer loop
      vertex -7.207803e+001 -1.026754e+002  1.283246e+002
      vertex -7.207803e+001 -1.026754e+002  1.255246e+002
      vertex -5.607802e+001 -1.026754e+002  1.283246e+002
    endloop
  endfacet
  facet normal  0.000000e+000 -1.000000e+000  -0.000000e+000
    outer loop
      vertex -5.607802e+001 -1.026754e+002  1.283246e+002
      vertex -7.207803e+001 -1.026754e+002  1.255246e+002
      vertex -5.607802e+001 -1.026754e+002  1.255246e+002
    endloop
  endfacet
  facet normal  1.000000e+000  -0.000000e+000  0.000000e+000
    outer loop
      vertex -7.207803e+001 -1.026754e+002  1.283246e+002
      vertex -7.207803e+001 -1.106754e+002  1.283246e+002
      vertex -7.207803e+001 -1.026754e+002  1.255246e+002
    endloop
  endfacet
  facet normal  1.000000e+000  0.000000e+000  0.000000e+000
    outer loop
      vertex -7.207803e+001 -1.026754e+002  1.255246e+002
      vertex -7.207803e+001 -1.106754e+002  1.283246e+002
      vertex -7.207803e+001 -1.106754e+002  1.255246e+002
    endloop
  endfacet
  facet normal -1.000000e+000  -0.000000e+000  0.000000e+000
    outer loop
      vertex -5.607802e+001 -1.106754e+002  1.283246e+002
      vertex -5.607802e+001 -1.026754e+002  1.283246e+002
      vertex -5.607802e+001 -1.106754e+002  1.255246e+002
    endloop
  endfacet
  facet normal -1.000000e+000  0.000000e+000  0.000000e+000
    outer loop
      vertex -5.607802e+001 -1.106754e+002  1.255246e+002
      vertex -5.607802e+001 -1.026754e+002  1.283246e+002
      vertex -5.607802e+001 -1.026754e+002  1.255246e+002
    endloop
  endfacet
  facet normal  0.000000e+000  1.000000e+000  -0.000000e+000
    outer loop
      vertex -5.607802e+001 -1.106754e+002  1.283246e+002
      vertex -5.607802e+001 -1.106754e+002  1.255246e+002
      vertex -7.207803e+001 -1.106754e+002  1.283246e+002
    endloop
  endfacet
  facet normal  0.000000e+000  1.000000e+000  0.000000e+000
    outer loop
      vertex -7.207803e+001 -1.106754e+002  1.283246e+002
      vertex -5.607802e+001 -1.106754e+002  1.255246e+002
      vertex -7.207803e+001 -1.106754e+002  1.255246e+002
    endloop
  endfacet
  facet normal  0.000000e+000  0.000000e+000  1.000000e+000
    outer loop
      vertex -9.175002e+001  4.324593e+000  1.293246e+002
      vertex -9.175002e+001 -1.156754e+002  1.293246e+002
      vertex -7.307803e+001 -1.116754e+002  1.293246e+002
    endloop
  endfacet
  facet normal  0.000000e+000  -0.000000e+000  9.999999e-001
    outer loop
      vertex -9.175002e+001  4.324593e+000  1.293246e+002
      vertex -7.307803e+001 -1.116754e+002  1.293246e+002
      vertex -7.307803e+001 -1.016754e+002  1.293246e+002
    endloop
  endfacet
  facet normal  0.000000e+000  -0.000000e+000  1.000000e+000
    outer loop
      vertex -9.175002e+001  4.324593e+000  1.293246e+002
      vertex -7.307803e+001 -1.016754e+002  1.293246e+002
      vertex -5.507802e+001 -1.016754e+002  1.293246e+002
    endloop
  endfacet
  facet normal  0.000000e+000  -0.000000e+000  1.000000e+000
    outer loop
      vertex -9.175002e+001  4.324593e+000  1.293246e+002
      vertex -5.507802e+001 -1.016754e+002  1.293246e+002
      vertex -9.750023e+000  4.324593e+000  1.293246e+002
    endloop
  endfacet
  facet normal  0.000000e+000  0.000000e+000  9.999999e-001
    outer loop
      vertex -5.507802e+001 -1.016754e+002  1.293246e+002
      vertex -5.507802e+001 -1.116754e+002  1.293246e+002
      vertex -9.750023e+000  4.324593e+000  1.293246e+002
    endloop
  endfacet
  facet normal  0.000000e+000  0.000000e+000  9.999999e-001
    outer loop
      vertex -9.750023e+000  4.324593e+000  1.293246e+002
      vertex -5.507802e+001 -1.116754e+002  1.293246e+002
      vertex -9.750023e+000 -1.156754e+002  1.293246e+002
    endloop
  endfacet
  facet normal  -0.000000e+000  0.000000e+000  1.000000e+000
    outer loop
      vertex -5.507802e+001 -1.116754e+002  1.293246e+002
      vertex -7.307803e+001 -1.116754e+002  1.293246e+002
      vertex -9.750023e+000 -1.156754e+002  1.293246e+002
    endloop
  endfacet
  facet normal  0.000000e+000  0.000000e+000  9.999999e-001
    outer loop
      vertex -9.750023e+000 -1.156754e+002  1.293246e+002
      vertex -7.307803e+001 -1.116754e+002  1.293246e+002
      vertex -9.175002e+001 -1.156754e+002  1.293246e+002
    endloop
  endfacet
  facet normal  -0.000000e+000 -7.865173e-002 -9.969022e-001
    outer loop
      vertex -7.307803e+001 -1.016754e+002  1.245246e+002
      vertex -5.507802e+001 -1.016754e+002  1.245246e+002
      vertex -7.292126e+001 -1.018322e+002  1.245370e+002
    endloop
  endfacet
  facet normal  0.000000e+000 -7.865173e-002 -9.969022e-001
    outer loop
      vertex -7.292126e+001 -1.018322e+002  1.245370e+002
      vertex -5.507802e+001 -1.016754e+002  1.245246e+002
      vertex -5.523478e+001 -1.018322e+002  1.245370e+002
    endloop
  endfacet
  facet normal  -0.000000e+000 -2.640129e-001 -9.645191e-001
    outer loop
      vertex -7.292126e+001 -1.018322e+002  1.245370e+002
      vertex -5.523478e+001 -1.018322e+002  1.245370e+002
      vertex -7.270991e+001 -1.020435e+002  1.245948e+002
    endloop
  endfacet
  facet normal  0.000000e+000 -2.640129e-001 -9.645191e-001
    outer loop
      vertex -7.270991e+001 -1.020435e+002  1.245948e+002
      vertex -5.523478e+001 -1.018322e+002  1.245370e+002
      vertex -5.544614e+001 -1.020435e+002  1.245948e+002
    endloop
  endfacet
  facet normal  -0.000000e+000 -4.725336e-001 -8.813127e-001
    outer loop
      vertex -7.270991e+001 -1.020435e+002  1.245948e+002
      vertex -5.544614e+001 -1.020435e+002  1.245948e+002
      vertex -7.250732e+001 -1.022461e+002  1.247034e+002
    endloop
  endfacet
  facet normal  0.000000e+000 -4.725336e-001 -8.813127e-001
    outer loop
      vertex -7.250732e+001 -1.022461e+002  1.247034e+002
      vertex -5.544614e+001 -1.020435e+002  1.245948e+002
      vertex -5.564873e+001 -1.022461e+002  1.247034e+002
    endloop
  endfacet
  facet normal  -0.000000e+000 -6.673118e-001 -7.447785e-001
    outer loop
      vertex -7.250732e+001 -1.022461e+002  1.247034e+002
      vertex -5.564873e+001 -1.022461e+002  1.247034e+002
      vertex -7.232423e+001 -1.024292e+002  1.248675e+002
    endloop
  endfacet
  facet normal  0.000000e+000 -6.673117e-001 -7.447784e-001
    outer loop
      vertex -7.232423e+001 -1.024292e+002  1.248675e+002
      vertex -5.564873e+001 -1.022461e+002  1.247034e+002
      vertex -5.583181e+001 -1.024292e+002  1.248675e+002
    endloop
  endfacet
  facet normal  -0.000000e+000 -7.950854e-001 -6.064973e-001
    outer loop
      vertex -7.232423e+001 -1.024292e+002  1.248675e+002
      vertex -5.583181e+001 -1.024292e+002  1.248675e+002
      vertex -7.224506e+001 -1.025084e+002  1.249713e+002
    endloop
  endfacet
  facet normal  0.000000e+000 -7.950855e-001 -6.064974e-001
    outer loop
      vertex -7.224506e+001 -1.025084e+002  1.249713e+002
      vertex -5.583181e+001 -1.024292e+002  1.248675e+002
      vertex -5.591099e+001 -1.025084e+002  1.249713e+002
    endloop
  endfacet
  facet normal  -0.000000e+000 -8.687183e-001 -4.953066e-001
    outer loop
      vertex -7.224506e+001 -1.025084e+002  1.249713e+002
      vertex -5.591099e+001 -1.025084e+002  1.249713e+002
      vertex -7.217757e+001 -1.025759e+002  1.250896e+002
    endloop
  endfacet
  facet normal  0.000000e+000 -8.687182e-001 -4.953066e-001
    outer loop
      vertex -7.217757e+001 -1.025759e+002  1.250896e+002
      vertex -5.591099e+001 -1.025084e+002  1.249713e+002
      vertex -5.597848e+001 -1.025759e+002  1.250896e+002
    endloop
  endfacet
  facet normal  -0.000000e+000 -9.427508e-001 -3.334983e-001
    outer loop
      vertex -7.217757e+001 -1.025759e+002  1.250896e+002
      vertex -5.597848e+001 -1.025759e+002  1.250896e+002
      vertex -7.210438e+001 -1.026491e+002  1.252965e+002
    endloop
  endfacet
  facet normal  0.000000e+000 -9.427508e-001 -3.334984e-001
    outer loop
      vertex -7.210438e+001 -1.026491e+002  1.252965e+002
      vertex -5.597848e+001 -1.025759e+002  1.250896e+002
      vertex -5.605167e+001 -1.026491e+002  1.252965e+002
    endloop
  endfacet
  facet normal  -0.000000e+000 -9.933898e-001 -1.147893e-001
    outer loop
      vertex -7.210438e+001 -1.026491e+002  1.252965e+002
      vertex -5.605167e+001 -1.026491e+002  1.252965e+002
      vertex -7.207803e+001 -1.026754e+002  1.255246e+002
    endloop
  endfacet
  facet normal  0.000000e+000 -9.933899e-001 -1.147894e-001
    outer loop
      vertex -7.207803e+001 -1.026754e+002  1.255246e+002
      vertex -5.605167e+001 -1.026491e+002  1.252965e+002
      vertex -5.607802e+001 -1.026754e+002  1.255246e+002
    endloop
  endfacet
  facet normal  9.933898e-001  0.000000e+000 -1.147894e-001
    outer loop
      vertex -7.207803e+001 -1.026754e+002  1.255246e+002
      vertex -7.207803e+001 -1.106754e+002  1.255246e+002
      vertex -7.210438e+001 -1.026491e+002  1.252965e+002
    endloop
  endfacet
  facet normal  9.933898e-001  0.000000e+000 -1.147894e-001
    outer loop
      vertex -7.210438e+001 -1.026491e+002  1.252965e+002
      vertex -7.207803e+001 -1.106754e+002  1.255246e+002
      vertex -7.210438e+001 -1.107018e+002  1.252965e+002
    endloop
  endfacet
  facet normal  9.427507e-001  0.000000e+000 -3.334983e-001
    outer loop
      vertex -7.210438e+001 -1.026491e+002  1.252965e+002
      vertex -7.210438e+001 -1.107018e+002  1.252965e+002
      vertex -7.217757e+001 -1.025759e+002  1.250896e+002
    endloop
  endfacet
  facet normal  9.427508e-001  0.000000e+000 -3.334983e-001
    outer loop
      vertex -7.217757e+001 -1.025759e+002  1.250896e+002
      vertex -7.210438e+001 -1.107018e+002  1.252965e+002
      vertex -7.217757e+001 -1.107749e+002  1.250896e+002
    endloop
  endfacet
  facet normal  8.687183e-001  0.000000e+000 -4.953066e-001
    outer loop
      vertex -7.217757e+001 -1.025759e+002  1.250896e+002
      vertex -7.217757e+001 -1.107749e+002  1.250896e+002
      vertex -7.224506e+001 -1.025084e+002  1.249713e+002
    endloop
  endfacet
  facet normal  8.687182e-001  0.000000e+000 -4.953066e-001
    outer loop
      vertex -7.224506e+001 -1.025084e+002  1.249713e+002
      vertex -7.217757e+001 -1.107749e+002  1.250896e+002
      vertex -7.224506e+001 -1.108424e+002  1.249713e+002
    endloop
  endfacet
  facet normal  7.950854e-001  0.000000e+000 -6.064973e-001
    outer loop
      vertex -7.224506e+001 -1.025084e+002  1.249713e+002
      vertex -7.224506e+001 -1.108424e+002  1.249713e+002
      vertex -7.232423e+001 -1.024292e+002  1.248675e+002
    endloop
  endfacet
  facet normal  7.951134e-001  7.143119e-007 -6.064608e-001
    outer loop
      vertex -7.232423e+001 -1.024292e+002  1.248675e+002
      vertex -7.224506e+001 -1.108424e+002  1.249713e+002
      vertex -7.232423e+001 -1.109216e+002  1.248675e+002
    endloop
  endfacet
  facet normal  6.673121e-001  5.994981e-007 -7.447782e-001
    outer loop
      vertex -7.232423e+001 -1.024292e+002  1.248675e+002
      vertex -7.232423e+001 -1.109216e+002  1.248675e+002
      vertex -7.250732e+001 -1.022461e+002  1.247034e+002
    endloop
  endfacet
  facet normal  6.672964e-001  0.000000e+000 -7.447923e-001
    outer loop
      vertex -7.250732e+001 -1.022461e+002  1.247034e+002
      vertex -7.232423e+001 -1.109216e+002  1.248675e+002
      vertex -7.250732e+001 -1.111047e+002  1.247034e+002
    endloop
  endfacet
  facet normal  4.725474e-001  0.000000e+000 -8.813053e-001
    outer loop
      vertex -7.250732e+001 -1.022461e+002  1.247034e+002
      vertex -7.250732e+001 -1.111047e+002  1.247034e+002
      vertex -7.270991e+001 -1.020435e+002  1.245948e+002
    endloop
  endfacet
  facet normal  4.725339e-001 -3.891660e-007 -8.813125e-001
    outer loop
      vertex -7.270991e+001 -1.020435e+002  1.245948e+002
      vertex -7.250732e+001 -1.111047e+002  1.247034e+002
      vertex -7.270992e+001 -1.113073e+002  1.245948e+002
    endloop
  endfacet
  facet normal  2.640127e-001 -2.174336e-007 -9.645193e-001
    outer loop
      vertex -7.270991e+001 -1.020435e+002  1.245948e+002
      vertex -7.270992e+001 -1.113073e+002  1.245948e+002
      vertex -7.292126e+001 -1.018322e+002  1.245370e+002
    endloop
  endfacet
  facet normal  2.640218e-001  0.000000e+000 -9.645167e-001
    outer loop
      vertex -7.292126e+001 -1.018322e+002  1.245370e+002
      vertex -7.270992e+001 -1.113073e+002  1.245948e+002
      vertex -7.292126e+001 -1.115187e+002  1.245370e+002
    endloop
  endfacet
  facet normal  7.864793e-002  0.000000e+000 -9.969025e-001
    outer loop
      vertex -7.292126e+001 -1.018322e+002  1.245370e+002
      vertex -7.292126e+001 -1.115187e+002  1.245370e+002
      vertex -7.307803e+001 -1.016754e+002  1.245246e+002
    endloop
  endfacet
  facet normal  7.864792e-002  0.000000e+000 -9.969024e-001
    outer loop
      vertex -7.307803e+001 -1.016754e+002  1.245246e+002
      vertex -7.292126e+001 -1.115187e+002  1.245370e+002
      vertex -7.307803e+001 -1.116754e+002  1.245246e+002
    endloop
  endfacet
  facet normal  0.000000e+000  7.865173e-002 -9.969022e-001
    outer loop
      vertex -5.507802e+001 -1.116754e+002  1.245246e+002
      vertex -7.307803e+001 -1.116754e+002  1.245246e+002
      vertex -5.523478e+001 -1.115187e+002  1.245370e+002
    endloop
  endfacet
  facet normal  0.000000e+000  7.865173e-002 -9.969022e-001
    outer loop
      vertex -5.523478e+001 -1.115187e+002  1.245370e+002
      vertex -7.307803e+001 -1.116754e+002  1.245246e+002
      vertex -7.292126e+001 -1.115187e+002  1.245370e+002
    endloop
  endfacet
  facet normal  0.000000e+000  2.640129e-001 -9.645191e-001
    outer loop
      vertex -5.523478e+001 -1.115187e+002  1.245370e+002
      vertex -7.292126e+001 -1.115187e+002  1.245370e+002
      vertex -5.544614e+001 -1.113073e+002  1.245948e+002
    endloop
  endfacet
  facet normal  0.000000e+000  2.640129e-001 -9.645191e-001
    outer loop
      vertex -5.544614e+001 -1.113073e+002  1.245948e+002
      vertex -7.292126e+001 -1.115187e+002  1.245370e+002
      vertex -7.270992e+001 -1.113073e+002  1.245948e+002
    endloop
  endfacet
  facet normal  0.000000e+000  4.725336e-001 -8.813127e-001
    outer loop
      vertex -5.544614e+001 -1.113073e+002  1.245948e+002
      vertex -7.270992e+001 -1.113073e+002  1.245948e+002
      vertex -5.564873e+001 -1.111047e+002  1.247034e+002
    endloop
  endfacet
  facet normal  0.000000e+000  4.725336e-001 -8.813127e-001
    outer loop
      vertex -5.564873e+001 -1.111047e+002  1.247034e+002
      vertex -7.270992e+001 -1.113073e+002  1.245948e+002
      vertex -7.250732e+001 -1.111047e+002  1.247034e+002
    endloop
  endfacet
  facet normal  0.000000e+000  6.673118e-001 -7.447785e-001
    outer loop
      vertex -5.564873e+001 -1.111047e+002  1.247034e+002
      vertex -7.250732e+001 -1.111047e+002  1.247034e+002
      vertex -5.583181e+001 -1.109216e+002  1.248675e+002
    endloop
  endfacet
  facet normal  0.000000e+000  6.673118e-001 -7.447785e-001
    outer loop
      vertex -5.583181e+001 -1.109216e+002  1.248675e+002
      vertex -7.250732e+001 -1.111047e+002  1.247034e+002
      vertex -7.232423e+001 -1.109216e+002  1.248675e+002
    endloop
  endfacet
  facet normal  0.000000e+000  7.950854e-001 -6.064973e-001
    outer loop
      vertex -5.583181e+001 -1.109216e+002  1.248675e+002
      vertex -7.232423e+001 -1.109216e+002  1.248675e+002
      vertex -5.591099e+001 -1.108424e+002  1.249713e+002
    endloop
  endfacet
  facet normal  0.000000e+000  7.950855e-001 -6.064974e-001
    outer loop
      vertex -5.591099e+001 -1.108424e+002  1.249713e+002
      vertex -7.232423e+001 -1.109216e+002  1.248675e+002
      vertex -7.224506e+001 -1.108424e+002  1.249713e+002
    endloop
  endfacet
  facet normal  0.000000e+000  8.687183e-001 -4.953066e-001
    outer loop
      vertex -5.591099e+001 -1.108424e+002  1.249713e+002
      vertex -7.224506e+001 -1.108424e+002  1.249713e+002
      vertex -5.597848e+001 -1.107749e+002  1.250896e+002
    endloop
  endfacet
  facet normal  0.000000e+000  8.687182e-001 -4.953066e-001
    outer loop
      vertex -5.597848e+001 -1.107749e+002  1.250896e+002
      vertex -7.224506e+001 -1.108424e+002  1.249713e+002
      vertex -7.217757e+001 -1.107749e+002  1.250896e+002
    endloop
  endfacet
  facet normal  0.000000e+000  9.427508e-001 -3.334983e-001
    outer loop
      vertex -5.597848e+001 -1.107749e+002  1.250896e+002
      vertex -7.217757e+001 -1.107749e+002  1.250896e+002
      vertex -5.605167e+001 -1.107018e+002  1.252965e+002
    endloop
  endfacet
  facet normal  0.000000e+000  9.427508e-001 -3.334984e-001
    outer loop
      vertex -5.605167e+001 -1.107018e+002  1.252965e+002
      vertex -7.217757e+001 -1.107749e+002  1.250896e+002
      vertex -7.210438e+001 -1.107018e+002  1.252965e+002
    endloop
  endfacet
  facet normal  0.000000e+000  9.933898e-001 -1.147893e-001
    outer loop
      vertex -5.605167e+001 -1.107018e+002  1.252965e+002
      vertex -7.210438e+001 -1.107018e+002  1.252965e+002
      vertex -5.607802e+001 -1.106754e+002  1.255246e+002
    endloop
  endfacet
  facet normal  0.000000e+000  9.933899e-001 -1.147894e-001
    outer loop
      vertex -5.607802e+001 -1.106754e+002  1.255246e+002
      vertex -7.210438e+001 -1.107018e+002  1.252965e+002
      vertex -7.207803e+001 -1.106754e+002  1.255246e+002
    endloop
  endfacet
  facet normal -9.933898e-001  -0.000000e+000 -1.147894e-001
    outer loop
      vertex -5.607802e+001 -1.106754e+002  1.255246e+002
      vertex -5.607802e+001 -1.026754e+002  1.255246e+002
      vertex -5.605167e+001 -1.107018e+002  1.252965e+002
    endloop
  endfacet
  facet normal -9.933898e-001  0.000000e+000 -1.147894e-001
    outer loop
      vertex -5.605167e+001 -1.107018e+002  1.252965e+002
      vertex -5.607802e+001 -1.026754e+002  1.255246e+002
      vertex -5.605167e+001 -1.026491e+002  1.252965e+002
    endloop
  endfacet
  facet normal -9.427453e-001  -0.000000e+000 -3.335138e-001
    outer loop
      vertex -5.605167e+001 -1.107018e+002  1.252965e+002
      vertex -5.605167e+001 -1.026491e+002  1.252965e+002
      vertex -5.597848e+001 -1.107749e+002  1.250896e+002
    endloop
  endfacet
  facet normal -9.427451e-001  0.000000e+000 -3.335138e-001
    outer loop
      vertex -5.597848e+001 -1.107749e+002  1.250896e+002
      vertex -5.605167e+001 -1.026491e+002  1.252965e+002
      vertex -5.597848e+001 -1.025759e+002  1.250896e+002
    endloop
  endfacet
  facet normal -8.687303e-001  -0.000000e+000 -4.952855e-001
    outer loop
      vertex -5.597848e+001 -1.107749e+002  1.250896e+002
      vertex -5.597848e+001 -1.025759e+002  1.250896e+002
      vertex -5.591099e+001 -1.108424e+002  1.249713e+002
    endloop
  endfacet
  facet normal -8.687302e-001  0.000000e+000 -4.952855e-001
    outer loop
      vertex -5.591099e+001 -1.108424e+002  1.249713e+002
      vertex -5.597848e+001 -1.025759e+002  1.250896e+002
      vertex -5.591099e+001 -1.025084e+002  1.249713e+002
    endloop
  endfacet
  facet normal -7.950714e-001  -0.000000e+000 -6.065158e-001
    outer loop
      vertex -5.591099e+001 -1.108424e+002  1.249713e+002
      vertex -5.591099e+001 -1.025084e+002  1.249713e+002
      vertex -5.583181e+001 -1.109216e+002  1.248675e+002
    endloop
  endfacet
  facet normal -7.950714e-001  0.000000e+000 -6.065159e-001
    outer loop
      vertex -5.583181e+001 -1.109216e+002  1.248675e+002
      vertex -5.591099e+001 -1.025084e+002  1.249713e+002
      vertex -5.583181e+001 -1.024292e+002  1.248675e+002
    endloop
  endfacet
  facet normal -6.673195e-001  -0.000000e+000 -7.447716e-001
    outer loop
      vertex -5.583181e+001 -1.109216e+002  1.248675e+002
      vertex -5.583181e+001 -1.024292e+002  1.248675e+002
      vertex -5.564873e+001 -1.111047e+002  1.247034e+002
    endloop
  endfacet
  facet normal -6.673195e-001  0.000000e+000 -7.447715e-001
    outer loop
      vertex -5.564873e+001 -1.111047e+002  1.247034e+002
      vertex -5.583181e+001 -1.024292e+002  1.248675e+002
      vertex -5.564873e+001 -1.022461e+002  1.247034e+002
    endloop
  endfacet
  facet normal -4.725405e-001  -0.000000e+000 -8.813089e-001
    outer loop
      vertex -5.564873e+001 -1.111047e+002  1.247034e+002
      vertex -5.564873e+001 -1.022461e+002  1.247034e+002
      vertex -5.544614e+001 -1.113073e+002  1.245948e+002
    endloop
  endfacet
  facet normal -4.725405e-001  0.000000e+000 -8.813089e-001
    outer loop
      vertex -5.544614e+001 -1.113073e+002  1.245948e+002
      vertex -5.564873e+001 -1.022461e+002  1.247034e+002
      vertex -5.544614e+001 -1.020435e+002  1.245948e+002
    endloop
  endfacet
  facet normal -2.640129e-001  -0.000000e+000 -9.645192e-001
    outer loop
      vertex -5.544614e+001 -1.113073e+002  1.245948e+002
      vertex -5.544614e+001 -1.020435e+002  1.245948e+002
      vertex -5.523478e+001 -1.115187e+002  1.245370e+002
    endloop
  endfacet
  facet normal -2.640129e-001  0.000000e+000 -9.645191e-001
    outer loop
      vertex -5.523478e+001 -1.115187e+002  1.245370e+002
      vertex -5.544614e+001 -1.020435e+002  1.245948e+002
      vertex -5.523478e+001 -1.018322e+002  1.245370e+002
    endloop
  endfacet
  facet normal -7.864982e-002  -0.000000e+000 -9.969023e-001
    outer loop
      vertex -5.523478e+001 -1.115187e+002  1.245370e+002
      vertex -5.523478e+001 -1.018322e+002  1.245370e+002
      vertex -5.507802e+001 -1.116754e+002  1.245246e+002
    endloop
  endfacet
  facet normal -7.864983e-002  0.000000e+000 -9.969023e-001
    outer loop
      vertex -5.507802e+001 -1.116754e+002  1.245246e+002
      vertex -5.523478e+001 -1.018322e+002  1.245370e+002
      vertex -5.507802e+001 -1.016754e+002  1.245246e+002
    endloop
  endfacet
  facet normal  0.000000e+000  0.000000e+000 -9.999999e-001
    outer loop
      vertex -9.750023e+000  4.324593e+000  1.245246e+002
      vertex -9.750023e+000 -1.156754e+002  1.245246e+002
      vertex -5.507802e+001 -1.116754e+002  1.245246e+002
    endloop
  endfacet
  facet normal  0.000000e+000  0.000000e+000 -9.999999e-001
    outer loop
      vertex -9.750023e+000  4.324593e+000  1.245246e+002
      vertex -5.507802e+001 -1.116754e+002  1.245246e+002
      vertex -5.507802e+001 -1.016754e+002  1.245246e+002
    endloop
  endfacet
  facet normal  0.000000e+000  0.000000e+000 -1.000000e+000
    outer loop
      vertex -9.750023e+000  4.324593e+000  1.245246e+002
      vertex -5.507802e+001 -1.016754e+002  1.245246e+002
      vertex -7.307803e+001 -1.016754e+002  1.245246e+002
    endloop
  endfacet
  facet normal  0.000000e+000  0.000000e+000 -1.000000e+000
    outer loop
      vertex -9.750023e+000  4.324593e+000  1.245246e+002
      vertex -7.307803e+001 -1.016754e+002  1.245246e+002
      vertex -9.175002e+001  4.324593e+000  1.245246e+002
    endloop
  endfacet
  facet normal  0.000000e+000  0.000000e+000 -9.999999e-001
    outer loop
      vertex -7.307803e+001 -1.016754e+002  1.245246e+002
      vertex -7.307803e+001 -1.116754e+002  1.245246e+002
      vertex -9.175002e+001  4.324593e+000  1.245246e+002
    endloop
  endfacet
  facet normal  0.000000e+000  0.000000e+000 -1.000000e+000
    outer loop
      vertex -9.175002e+001  4.324593e+000  1.245246e+002
      vertex -7.307803e+001 -1.116754e+002  1.245246e+002
      vertex -9.175002e+001 -1.156754e+002  1.245246e+002
    endloop
  endfacet
  facet normal  -0.000000e+000  0.000000e+000 -1.000000e+000
    outer loop
      vertex -7.307803e+001 -1.116754e+002  1.245246e+002
      vertex -5.507802e+001 -1.116754e+002  1.245246e+002
      vertex -9.175002e+001 -1.156754e+002  1.245246e+002
    endloop
  endfacet
  facet normal  0.000000e+000  0.000000e+000 -9.999999e-001
    outer loop
      vertex -9.175002e+001 -1.156754e+002  1.245246e+002
      vertex -5.507802e+001 -1.116754e+002  1.245246e+002
      vertex -9.750023e+000 -1.156754e+002  1.245246e+002
    endloop
  endfacet
  facet normal  0.000000e+000 -1.000000e+000  0.000000e+000
    outer loop
      vertex -9.175002e+001 -1.156754e+002  1.245246e+002
      vertex -9.750023e+000 -1.156754e+002  1.245246e+002
      vertex -9.175002e+001 -1.156754e+002  1.293246e+002
    endloop
  endfacet
  facet normal  0.000000e+000 -1.000000e+000  0.000000e+000
    outer loop
      vertex -9.175002e+001 -1.156754e+002  1.293246e+002
      vertex -9.750023e+000 -1.156754e+002  1.245246e+002
      vertex -9.750023e+000 -1.156754e+002  1.293246e+002
    endloop
  endfacet
  facet normal  0.000000e+000  1.000000e+000  0.000000e+000
    outer loop
      vertex -9.175002e+001  4.324593e+000  1.245246e+002
      vertex -9.175002e+001  4.324593e+000  1.293246e+002
      vertex -9.750023e+000  4.324593e+000  1.245246e+002
    endloop
  endfacet
  facet normal  0.000000e+000  1.000000e+000  -0.000000e+000
    outer loop
      vertex -9.750023e+000  4.324593e+000  1.245246e+002
      vertex -9.175002e+001  4.324593e+000  1.293246e+002
      vertex -9.750023e+000  4.324593e+000  1.293246e+002
    endloop
  endfacet
  facet normal  1.000000e+000  0.000000e+000  0.000000e+000
    outer loop
      vertex -9.750023e+000  4.324593e+000  1.245246e+002
      vertex -9.750023e+000  4.324593e+000  1.293246e+002
      vertex -9.750023e+000 -1.156754e+002  1.245246e+002
    endloop
  endfacet
  facet normal  1.000000e+000  0.000000e+000  0.000000e+000
    outer loop
      vertex -9.750023e+000 -1.156754e+002  1.245246e+002
      vertex -9.750023e+000  4.324593e+000  1.293246e+002
      vertex -9.750023e+000 -1.156754e+002  1.293246e+002
    endloop
  endfacet
  facet normal -1.000000e+000  0.000000e+000  0.000000e+000
    outer loop
      vertex -9.175002e+001  4.324593e+000  1.293246e+002
      vertex -9.175002e+001  4.324593e+000  1.245246e+002
      vertex -9.175002e+001 -1.156754e+002  1.293246e+002
    endloop
  endfacet
  facet normal -1.000000e+000  0.000000e+000  0.000000e+000
    outer loop
      vertex -9.175002e+001 -1.156754e+002  1.293246e+002
      vertex -9.175002e+001  4.324593e+000  1.245246e+002
      vertex -9.175002e+001 -1.156754e+002  1.245246e+002
    endloop
  endfacet
endsolid CATIA STL
